<svg xmlns="http://www.w3.org/2000/svg" width="1000" height="760" viewBox="0 0 1000 760">
<rect width="100%" height="100%" fill="#0c1424" />
<text x="48" y="58" fill="#ffffff" font-size="32" font-family="Segoe UI,Microsoft YaHei,sans-serif">官方独立路口 demo_20</text>
<text x="48" y="92" fill="#7ed6c4" font-size="18" font-family="Segoe UI,Microsoft YaHei,sans-serif">Excel 流量与配时 + OSM 位置、方位与道路等级</text>
<line x1="500.0" y1="390.0" x2="633.2" y2="332.8" stroke="#27374d" stroke-width="24" stroke-linecap="round" />
<line x1="500.0" y1="390.0" x2="443.2" y2="256.6" stroke="#27374d" stroke-width="24" stroke-linecap="round" />
<line x1="500.0" y1="390.0" x2="506.8" y2="534.8" stroke="#27374d" stroke-width="24" stroke-linecap="round" />
<line x1="500.0" y1="390.0" x2="367.2" y2="448.2" stroke="#27374d" stroke-width="24" stroke-linecap="round" />
<line x1="500.0" y1="390.0" x2="633.2" y2="332.8" stroke="#f4cf57" stroke-width="2" stroke-dasharray="10 8" />
<line x1="500.0" y1="390.0" x2="443.2" y2="256.6" stroke="#f4cf57" stroke-width="2" stroke-dasharray="10 8" />
<line x1="500.0" y1="390.0" x2="506.8" y2="534.8" stroke="#f4cf57" stroke-width="2" stroke-dasharray="10 8" />
<line x1="500.0" y1="390.0" x2="367.2" y2="448.2" stroke="#f4cf57" stroke-width="2" stroke-dasharray="10 8" />
<circle cx="500.0" cy="390.0" r="24" fill="#f05d5e" stroke="#ffffff" stroke-width="3" />
<text x="500.0" y="397.0" fill="#ffffff" text-anchor="middle" font-size="20">J</text>
<text x="633.2" y="314.8" text-anchor="middle" fill="#e7edf6" font-size="20">E · 3进口车道</text>
<text x="443.2" y="238.6" text-anchor="middle" fill="#e7edf6" font-size="20">N · 3进口车道</text>
<text x="506.8" y="516.8" text-anchor="middle" fill="#e7edf6" font-size="20">S · 3进口车道</text>
<text x="367.2" y="430.2" text-anchor="middle" fill="#e7edf6" font-size="20">W · 3进口车道</text>
<rect x="40" y="622" width="920" height="102" rx="16" fill="#17243a" stroke="#31445f" />
<text x="64" y="661" fill="#ffffff" font-size="18" font-family="Segoe UI,Microsoft YaHei,sans-serif">2小时精确需求：am_peak 2633辆 / offpeak 1041辆 / pm_peak 2361辆</text>
<text x="64" y="697" fill="#ffffff" font-size="18" font-family="Segoe UI,Microsoft YaHei,sans-serif">官方周期：am_peak 120s / offpeak 90s / pm_peak 110s</text>
</svg>