<svg xmlns="http://www.w3.org/2000/svg" width="1200" height="800" viewBox="0 0 1200 800">
<rect width="100%" height="100%" fill="white"/>
<text x="600" y="52" text-anchor="middle" font-family="Microsoft YaHei,sans-serif" font-size="30" fill="#15212B">图 2 平均排队 / Average Queue</text>
<line x1="120" y1="680.0" x2="1120" y2="680.0" stroke="#DDE3E7"/>
<text x="105" y="687.0" text-anchor="end" font-size="18" fill="#40515D">0.00</text>
<line x1="120" y1="576.0" x2="1120" y2="576.0" stroke="#DDE3E7"/>
<text x="105" y="583.0" text-anchor="end" font-size="18" fill="#40515D">0.90</text>
<line x1="120" y1="472.0" x2="1120" y2="472.0" stroke="#DDE3E7"/>
<text x="105" y="479.0" text-anchor="end" font-size="18" fill="#40515D">1.80</text>
<line x1="120" y1="368.0" x2="1120" y2="368.0" stroke="#DDE3E7"/>
<text x="105" y="375.0" text-anchor="end" font-size="18" fill="#40515D">2.71</text>
<line x1="120" y1="264.0" x2="1120" y2="264.0" stroke="#DDE3E7"/>
<text x="105" y="271.0" text-anchor="end" font-size="18" fill="#40515D">3.61</text>
<line x1="120" y1="160.0" x2="1120" y2="160.0" stroke="#DDE3E7"/>
<text x="105" y="167.0" text-anchor="end" font-size="18" fill="#40515D">4.51</text>
<rect x="177.5" y="275.4" width="135.0" height="404.6" fill="#3B4A5A"/>
<text x="245.0" y="720" text-anchor="middle" font-size="24" fill="#26343E">B0</text>
<rect x="427.5" y="275.4" width="135.0" height="404.6" fill="#2E7D6E"/>
<text x="495.0" y="720" text-anchor="middle" font-size="24" fill="#26343E">B1</text>
<rect x="677.5" y="275.4" width="135.0" height="404.6" fill="#D08C32"/>
<text x="745.0" y="720" text-anchor="middle" font-size="24" fill="#26343E">B2</text>
<rect x="927.5" y="280.1" width="135.0" height="399.9" fill="#B34B5E"/>
<text x="995.0" y="720" text-anchor="middle" font-size="24" fill="#26343E">B3</text>
<text x="35" y="390" transform="rotate(-90 35 390)" text-anchor="middle" font-size="20" fill="#40515D">veh</text>
<text x="600" y="775" text-anchor="middle" font-family="Microsoft YaHei,sans-serif" font-size="17" fill="#53636E">95% CI; n=5 paired SUMO seeds; 60 s rapid window</text>
</svg>